# xmcd CD database file
#
# Track frame offsets:
#	150
#	17320
#	34315
#	49787
#	66977
#	89456
#	105876
#	128749
#	149682
#	167756
#	188776
#	206888
#	221573
#	240250
#	257724
#	283376
#	309624
#	331448
#
# Disc length: 4704 seconds
#
# Revision: 1
# Processed by: cddbd v1.5.2PL0 Copyright (c) Steve Scherf et al.
# Submitted via: CDex 1.51
#
DISCID=0e125e12
DTITLE=John, Elton - Greatest Hits [CD1]
DYEAR=2007
DGENRE=Pop
TTITLE0=Weight Of The World
TTITLE1=Sorry Seems To Be The Hardest Word
TTITLE2=Blue Eyes
TTITLE3=Candle In The Wind
TTITLE4=Blessed
TTITLE5=I Stop And I Breathe
TTITLE6=Sacrifice
TTITLE7=A Word In Spanish
TTITLE8=Can You Feel The Love Tonight
TTITLE9=Rocket Man (I Think It's Going To Be A Long Long Time
TTITLE10=Your Song
TTITLE11=Goodbye Yellow Brick Road
TTITLE12=Idol
TTITLE13=Daniel
TTITLE14=Nikita
TTITLE15=The One
TTITLE16=Circle Of Life
TTITLE17=Believe
EXTD=YEAR: 2007
EXTT0=
EXTT1=
EXTT2=
EXTT3=
EXTT4=
EXTT5=
EXTT6=
EXTT7=
EXTT8=
EXTT9=
EXTT10=
EXTT11=
EXTT12=
EXTT13=
EXTT14=
EXTT15=
EXTT16=
EXTT17=
PLAYORDER=
